<?xml version="1.0" encoding="UTF-8" standalone="no"?>
<svg
   xmlns:dc="http://purl.org/dc/elements/1.1/"
   xmlns:cc="http://creativecommons.org/ns#"
   xmlns:rdf="http://www.w3.org/1999/02/22-rdf-syntax-ns#"
   xmlns:svg="http://www.w3.org/2000/svg"
   xmlns="http://www.w3.org/2000/svg"
   xmlns:sodipodi="http://sodipodi.sourceforge.net/DTD/sodipodi-0.dtd"
   xmlns:inkscape="http://www.inkscape.org/namespaces/inkscape"
   width="480.63422"
   height="160.02617"
   class="fl-svgdocument"
   overflow="visible"
   version="1.1"
   id="svg10"
   sodipodi:docname="logo.svg"
   inkscape:version="1.0.1 (3bc2e813f5, 2020-09-07)">
  <metadata
     id="metadata16">
    <rdf:RDF>
      <cc:Work
         rdf:about="">
        <dc:format>image/svg+xml</dc:format>
        <dc:type
           rdf:resource="http://purl.org/dc/dcmitype/StillImage" />
        <dc:title></dc:title>
      </cc:Work>
    </rdf:RDF>
  </metadata>
  <defs
     id="defs14" />
  <sodipodi:namedview
     pagecolor="#ffffff"
     bordercolor="#666666"
     borderopacity="1"
     objecttolerance="10"
     gridtolerance="10"
     guidetolerance="10"
     inkscape:pageopacity="0"
     inkscape:pageshadow="2"
     inkscape:window-width="1920"
     inkscape:window-height="1017"
     id="namedview12"
     showgrid="false"
     fit-margin-top="0"
     fit-margin-left="0"
     fit-margin-right="0"
     fit-margin-bottom="0"
     inkscape:zoom="3.5806856"
     inkscape:cx="240.3171"
     inkscape:cy="80.013087"
     inkscape:window-x="-8"
     inkscape:window-y="-8"
     inkscape:window-maximized="1"
     inkscape:current-layer="svg10" />
  <path
     text-anchor="middle"
     font-size="100px"
     letter-spacing="0"
     font-family="Pacifico"
     fill="#164e87"
     d="m 224.83421,111.89617 q -11.66,0 -20.28,-4.27 -8.63,-4.26 -13.23,-12.099996 -4.6,-7.84 -4.6,-18.23 0,-14.4 5.43,-25.58 5.44,-11.17 14.75,-17.3 9.31,-6.12 20.68,-6.12 10.58,0 16.07,5.44 5.49,5.44 5.49,14.36 0,5.98 -2.1,9.6 -2.11,3.63 -6.03,3.63 -2.75,0 -4.32,-1.28 -1.56,-1.27 -1.56,-3.72 0,-0.88 0.39,-3.23 0.59,-2.94 0.59,-4.7 0,-8.93 -9.51,-8.93 -6.47,0 -12.35,4.22 -5.88,4.21 -9.5,12.4 -3.63,8.18 -3.63,19.45 0,11.76 6.56,18.18 6.57,6.419996 19.4,6.419996 6.38,0 12.9,-1.619996 6.51,-1.62 14.45,-4.95 1.47,-0.59 2.45,-0.59 1.57,0 2.35,1.18 0.79,1.18 0.79,3.04 0,5.979996 -6.47,8.819996 -6.96,3.04 -14.46,4.46 -7.5,1.42 -14.26,1.42 z m 76.55,-30.579996 q 1.27,0 1.96,1.27 0.68,1.28 0.68,3.24 0,4.7 -2.84,5.58 -5.88,2.06 -12.94,2.36 -1.86,8.229996 -7.35,13.179996 -5.48,4.95 -12.44,4.95 -5.88,0 -10.05,-2.84 -4.16,-2.85 -6.32,-7.55 -2.16,-4.699996 -2.16,-10.199996 0,-7.44 2.85,-13.27 2.84,-5.83 7.84,-9.12 5,-3.28 11.07,-3.28 7.45,0 12,5.15 4.56,5.14 5.35,12.69 4.6,-0.3 10.97,-1.96 0.79,-0.2 1.38,-0.2 z m -32.15,20.189996 q 3.14,0 5.44,-2.549996 2.3,-2.55 3.09,-7.35 -3.04,-2.06 -4.66,-5.39 -1.61,-3.33 -1.61,-7.06 0,-1.56 0.29,-3.13 h -0.5 q -3.91,0 -6.5,3.77 -2.6,3.77 -2.6,10.63 0,5.4 2.1,8.24 2.1,2.839996 4.95,2.839996 z m 33.32,10.39 q -3.72,0 -5.24,-3.92 -1.52,-3.92 -1.52,-12.549996 0,-12.74 3.63,-24.2 0.88,-2.85 2.89,-4.17 2,-1.32 5.63,-1.32 1.96,0 2.75,0.49 0.78,0.49 0.78,1.86 0,1.57 -1.47,7.06 -0.98,3.92 -1.57,6.86 -0.59,2.94 -0.98,7.25 3.24,-8.43 7.25,-13.72 4.02,-5.3 7.9,-7.55 3.87,-2.25 7.1,-2.25 6.37,0 6.37,6.37 0,3.82 -2.16,13.82 -1.86,8.52 -1.86,11.27 0,3.919996 2.84,3.919996 1.96,0 4.66,-2.399996 2.7,-2.4 7.2,-7.8 1.18,-1.37 2.65,-1.37 1.27,0 2,1.18 0.74,1.17 0.74,3.23 0,3.92 -1.86,6.079996 -4.21,5.2 -9.06,8.53 -4.86,3.33 -11.03,3.33 -5,0 -7.55,-2.9 -2.54,-2.88 -2.54,-8.37 0,-2.749996 1.37,-9.799996 1.27,-6.18 1.27,-8.53 0,-1.57 -1.08,-1.57 -1.27,0 -3.57,3.29 -2.3,3.28 -4.7,8.67 -2.4,5.39 -3.88,11.369996 -1.08,4.6 -2.5,6.22 -1.42,1.62 -4.46,1.62 z m 91.15,-30.289996 q 0.3,-0.1 0.98,-0.1 1.47,0 2.25,0.99 0.78,0.98 0.78,2.64 0,3.04 -1.17,4.76 -1.18,1.71 -3.53,2.5 -4.5,1.47 -9.6,1.47 -4.32,0 -8.14,-1.18 -2.84,4.6 -6.27,9.499996 -3.92,5.6 -6.76,7.65 -2.84,2.06 -6.47,2.06 -4.02,0 -6.32,-3.14 -2.3,-3.13 -2.9,-9.899996 -1.17,-13.72 -1.17,-24 v -3.44 q 0.1,-3.23 1.76,-4.5 1.67,-1.28 5,-1.28 2.55,0 3.78,1.13 1.22,1.12 1.22,3.77 0,11.27 1.37,29.3 5.88,-8.72 8.82,-13.91 -1.47,-2.85 -1.47,-6.77 0,-3.33 1.47,-6.46 1.47,-3.14 4.02,-5.1 2.55,-1.96 5.78,-1.96 2.85,0 4.61,2 1.76,2.02 1.76,5.84 0,4.41 -2.35,10.1 3.73,-0.2 9.9,-1.48 z m 39.2,7.94 q 1.27,0 2,1.18 0.74,1.17 0.74,3.23 0,3.92 -1.86,6.079996 -3.63,4.41 -10.24,8.13 -6.62,3.73 -14.16,3.73 -10.3,0 -15.98,-5.59 -5.68,-5.58 -5.68,-15.289996 0,-6.76 2.84,-12.6 2.84,-5.82 7.89,-9.25 5.05,-3.43 11.42,-3.43 5.68,0 9.11,3.38 3.43,3.38 3.43,9.16 0,6.76 -4.85,11.62 -4.85,4.85 -16.42,7.69 2.46,4.499996 9.32,4.499996 4.4,0 10.04,-3.079996 5.64,-3.09 9.75,-8.09 1.18,-1.37 2.65,-1.37 z m -24.7,-14.2 q -3.62,0 -6.12,4.2 -2.5,4.22 -2.5,10.2 v 0.2 q 5.78,-1.38 9.11,-4.12 3.33,-2.75 3.33,-6.37 0,-1.86 -1.03,-3 -1.02,-1.12 -2.79,-1.12 z m 69.68,14.4 q 1.28,0 2.01,1.22 0.74,1.23 0.74,3.1 0,2.25 -0.69,3.52 -0.69,1.27 -2.16,2.25 l -18.81,12.649996 q -3.73,20.28 -9.75,31.9 -6.03,11.61 -15.34,11.61 -5,0 -8.14,-3.09 -3.13,-3.08 -3.13,-8.08 0,-4.6 2.1,-9.41 2.11,-4.8 7.85,-11.03 5.73,-6.22 16.22,-14.26 l 0.29,-2.25 q 0.69,-3.63 1.57,-10.389996 -1.96,7.059996 -5.5,10.729996 -3.52,3.68 -7.44,3.68 -4.41,0 -7.2,-4.07 -2.8,-4.07 -2.8,-10.139996 0,-7.35 0.98,-13.48 0.98,-6.12 3.24,-12.98 0.98,-2.94 2.74,-4.22 1.77,-1.27 5.59,-1.27 2.15,0 2.99,0.68 0.83,0.69 0.83,2.06 0,0.79 -1.08,5.3 -0.98,3.62 -1.57,6.56 -0.78,4.02 -1.37,7.7 -0.59,3.67 -0.59,6.02 0,3.73 2.06,3.73 1.47,0 3.68,-2.94 2.2,-2.95 4.7,-8.92 2.5,-5.98 4.85,-14.7 0.79,-2.94 2.4,-4.22 1.62,-1.27 4.86,-1.27 2.25,0 3.13,0.59 0.88,0.58 0.88,1.96 0,2.45 -2.54,16.85 l -2.55,15.779996 q 7.54,-5.679996 14.7,-10.389996 1.27,-0.78 2.25,-0.78 z m -42.92,56.739996 q 2.45,0 5.48,-5.68 3.04,-5.69 6.08,-18.92 -7.55,6.37 -10.93,11.62 -3.38,5.24 -3.38,9.16 0,1.67 0.64,2.75 0.64,1.07 2.1,1.07 z"
     id="path2" />
  <g
     fill="#3d90e3"
     id="g8"
     transform="translate(-13.345793,-163.85383)">
    <path
       d="m 106.44,303.2 a 3.5,3.5 0 0 1 -3.31,-2.37 L 89.73,260.66 49.58,247.28 a 3.48,3.48 0 0 1 -0.64,-6.32 l 132.4,-76.65 a 3.5,3.5 0 0 1 5.18,3.62 l -20.9,118.47 a 3.48,3.48 0 0 1 -4.81,2.6 l -44.84,-19.21 -6.13,30.63 a 3.48,3.48 0 0 1 -3.2,2.8 c -0.06,-0.02 -0.13,-0.01 -0.2,-0.01 z m -47.32,-60.09 34.48,11.5 a 3.47,3.47 0 0 1 2.2,2.2 l 9.79,29.36 4.4,-21.98 a 3.47,3.47 0 0 1 4.79,-2.52 l 44.74,19.18 18.84,-106.77 -119.24,69.02 z"
       id="path4" />
    <path
       d="m 113.4,269.6 a 3.49,3.49 0 0 1 -2.83,-5.51 l 45.22,-63.3 -60.83,60.82 a 3.49,3.49 0 0 1 -4.93,-4.93 l 90.6,-90.6 a 3.47,3.47 0 0 1 4.72,-0.19 3.5,3.5 0 0 1 0.58,4.68 l -69.69,97.57 a 3.49,3.49 0 0 1 -2.83,1.45 z m -5.79,36 a 3.49,3.49 0 0 1 -2.8,-5.58 l 20.91,-27.86 a 3.4860006,3.4860006 0 0 1 5.58,4.18 l -20.9,27.87 a 3.48,3.48 0 0 1 -2.79,1.4 z m -3.84,-28.54 a 0.58,0.58 0 0 1 -0.4,-0.15 l -0.86,-0.83 a 0.59,0.59 0 0 1 0.83,-0.83 c 0.27,0.28 0.55,0.54 0.83,0.8 a 0.59,0.59 0 0 1 -0.4,1.01 z m -52.46,46.82 c -3.29,0 -6.66,-0.35 -10.02,-1.04 a 3.49,3.49 0 1 1 1.4,-6.83 c 2.9,0.6 5.8,0.9 8.62,0.9 h 0.04 l 1.57,-0.03 c 2.27,-0.13 3.55,1.43 3.62,3.35 0.07,1.92 -1.45,3.55 -3.36,3.62 l -1.82,0.03 z m -24.97,-6.67 c -0.54,0 -1.09,-0.12 -1.6,-0.39 a 91.58,91.58 0 0 1 -9.9,-6.01 3.4842072,3.4842072 0 1 1 3.98,-5.72 c 3.07,2.14 6.14,4 9.13,5.55 a 3.48,3.48 0 0 1 -1.6,6.57 z m 49.73,0.87 a 3.5,3.5 0 0 1 -1.37,-6.7 51,51 0 0 0 5.84,-2.95 3.49,3.49 0 0 1 3.54,6 58.15,58.15 0 0 1 -6.64,3.37 c -0.44,0.2 -0.91,0.28 -1.37,0.28 z"
       id="path6" />
  </g>
</svg>
